<svg width="28" height="27" viewBox="0 0 28 27" fill="none" xmlns="http://www.w3.org/2000/svg">
<path d="M25.7294 20.6237C24.7943 19.6816 22.5298 18.3067 21.431 17.7527C20.0002 17.032 19.8825 16.9731 18.7579 17.8086C18.0077 18.3662 17.509 18.8643 16.6311 18.6771C15.7532 18.4899 13.8454 17.4341 12.175 15.769C10.5045 14.1038 9.38754 12.1407 9.19971 11.2657C9.01188 10.3908 9.51826 9.89795 10.0706 9.14604C10.849 8.08618 10.7901 7.90954 10.1247 6.47873C9.60599 5.36588 8.19108 3.12252 7.24545 2.1922C6.23388 1.19299 6.23388 1.36963 5.58207 1.64048C5.05141 1.86375 4.54232 2.13515 4.06117 2.45127C3.11908 3.07718 2.59621 3.5971 2.23056 4.37845C1.86491 5.1598 1.70063 6.99158 3.58895 10.422C5.47726 13.8524 6.80208 15.6065 9.54416 18.3409C12.2862 21.0753 14.3948 22.5456 17.4772 24.2743C21.2903 26.4099 22.7529 25.9936 23.5366 25.6286C24.3203 25.2635 24.8426 24.7454 25.4697 23.8033C25.7866 23.3229 26.0586 22.8144 26.2823 22.2841C26.5537 21.6347 26.7303 21.6347 25.7294 20.6237Z" stroke="#E1B168" stroke-width="2.1" stroke-miterlimit="10"/>
</svg>
