<svg width="284" height="275" viewBox="0 0 284 275" fill="none" xmlns="http://www.w3.org/2000/svg">
<mask id="path-1-inside-1_1_2105" fill="white">
<path d="M131.307 8.3501C133.839 -2.78336 150.161 -2.78337 152.693 8.35009C154.841 17.7954 167.78 19.7884 172.824 11.4509C178.77 1.6234 194.293 6.52829 193.163 17.8778C192.205 27.5065 203.877 33.2903 211.324 26.8769C220.102 19.3173 233.306 28.6469 228.626 39.1016C224.655 47.971 233.918 56.9795 243.038 53.1179C253.788 48.5662 263.382 61.4073 255.608 69.9437C249.014 77.1858 254.961 88.5372 264.862 87.6054C276.532 86.5071 281.575 101.603 271.47 107.385C262.897 112.291 264.946 124.874 274.659 126.963C286.107 129.426 286.107 145.299 274.659 147.761C264.946 149.85 262.897 162.434 271.47 167.339C281.575 173.122 276.532 188.218 264.862 187.119C254.961 186.187 249.014 197.539 255.608 204.781C263.382 213.317 253.788 226.158 243.038 221.607C233.918 217.745 224.655 226.754 228.626 235.623C233.306 246.078 220.102 255.407 211.324 247.848C203.877 241.434 192.205 247.218 193.163 256.847C194.293 268.196 178.77 273.101 172.824 263.274C167.78 254.936 154.841 256.929 152.693 266.375C150.161 277.508 133.839 277.508 131.307 266.375C129.159 256.929 116.22 254.936 111.176 263.274C105.23 273.101 89.7075 268.196 90.8368 256.847C91.7949 247.218 80.1227 241.434 72.676 247.848C63.8983 255.407 50.6942 246.078 55.3746 235.623C59.3453 226.754 50.0822 217.745 40.9621 221.607C30.2119 226.158 20.6186 213.317 28.3919 204.781C34.9866 197.539 29.0393 186.187 19.1385 187.119C7.46817 188.218 2.42465 173.122 12.53 167.339C21.103 162.434 19.0538 149.85 9.34147 147.761C-2.10666 145.299 -2.10666 129.426 9.34147 126.963C19.0538 124.874 21.103 112.291 12.53 107.385C2.42466 101.603 7.46817 86.5071 19.1385 87.6054C29.0393 88.5372 34.9866 77.1858 28.3919 69.9437C20.6186 61.4073 30.2119 48.5662 40.9621 53.1179C50.0822 56.9795 59.3453 47.971 55.3746 39.1016C50.6942 28.6469 63.8983 19.3173 72.676 26.8769C80.1227 33.2903 91.7949 27.5065 90.8368 17.8778C89.7075 6.52829 105.23 1.62341 111.176 11.4509C116.22 19.7884 129.159 17.7954 131.307 8.3501Z"/>
<path d="M139.081 29.25C139.353 25.739 144.647 25.739 144.919 29.25C145.176 32.5809 150.103 32.832 150.717 29.5455C151.365 26.0814 156.631 26.6196 156.523 30.1389C156.421 33.4777 161.294 34.2284 162.258 31.0223C163.274 27.6429 168.453 28.7135 167.968 32.2026C167.508 35.5128 172.274 36.7547 173.577 33.6642C174.951 30.4066 179.986 31.9979 179.129 35.4185C178.315 38.6638 182.921 40.3833 184.55 37.4422C186.266 34.3421 191.103 36.4365 189.883 39.7513C188.725 42.8961 193.121 45.0744 195.056 42.315C197.096 39.4064 201.682 41.981 200.112 45.1535C198.622 48.1634 202.76 50.7767 204.982 48.2291C207.323 45.5438 211.607 48.5705 209.704 51.566C207.899 54.408 211.734 57.4276 214.217 55.1198C216.834 52.6872 220.769 56.1328 218.555 58.9185C216.455 61.5614 219.943 64.9543 222.661 62.9116C225.525 60.7584 229.068 64.5851 226.567 67.1305C224.194 69.5453 227.299 73.2743 230.221 71.519C233.301 69.6688 236.414 73.8347 233.653 76.1119C231.033 78.2723 233.72 82.2965 236.815 80.8479C240.077 79.3209 242.725 83.7804 239.734 85.7644C236.896 87.6467 239.136 91.922 242.37 90.7959C245.778 89.609 247.932 94.3131 244.744 95.9822C241.72 97.5657 243.488 102.045 246.825 101.254C250.343 100.42 251.979 105.317 248.629 106.653C245.451 107.921 246.728 112.556 250.132 112.108C253.72 111.636 254.821 116.673 251.346 117.661C248.049 118.598 248.821 123.338 252.254 123.238C255.873 123.134 256.426 128.255 252.864 128.885C249.485 129.482 249.743 134.273 253.168 134.524C256.778 134.788 256.778 139.937 253.168 140.201C249.743 140.451 249.485 145.243 252.864 145.84C256.426 146.47 255.873 151.591 252.254 151.486C248.821 151.387 248.049 156.126 251.346 157.064C254.821 158.052 253.72 163.089 250.132 162.617C246.728 162.169 245.451 166.804 248.629 168.071C251.979 169.407 250.343 174.304 246.825 173.47C243.488 172.679 241.72 177.159 244.744 178.742C247.932 180.412 245.778 185.116 242.37 183.929C239.136 182.803 236.896 187.078 239.734 188.96C242.725 190.944 240.077 195.404 236.815 193.877C233.72 192.428 231.033 196.452 233.653 198.613C236.414 200.89 233.301 205.056 230.221 203.206C227.299 201.45 224.194 205.179 226.567 207.594C229.068 210.14 225.525 213.966 222.661 211.813C219.943 209.77 216.455 213.163 218.555 215.806C220.769 218.592 216.834 222.037 214.217 219.605C211.734 217.297 207.899 220.317 209.704 223.159C211.607 226.154 207.323 229.181 204.982 226.496C202.76 223.948 198.622 226.561 200.112 229.571C201.682 232.744 197.096 235.318 195.056 232.41C193.121 229.65 188.725 231.829 189.883 234.973C191.103 238.288 186.266 240.382 184.55 237.282C182.921 234.341 178.315 236.061 179.129 239.306C179.986 242.727 174.951 244.318 173.577 241.06C172.274 237.97 167.508 239.212 167.968 242.522C168.453 246.011 163.274 247.082 162.258 243.702C161.294 240.496 156.421 241.247 156.523 244.586C156.631 248.105 151.365 248.643 150.717 245.179C150.103 241.893 145.176 242.144 144.919 245.475C144.647 248.986 139.353 248.986 139.081 245.475C138.824 242.144 133.897 241.893 133.283 245.179C132.635 248.643 127.37 248.105 127.477 244.586C127.579 241.247 122.706 240.496 121.742 243.702C120.726 247.082 115.547 246.011 116.032 242.522C116.492 239.212 111.726 237.97 110.423 241.06C109.049 244.318 104.014 242.727 104.871 239.306C105.685 236.061 101.079 234.341 99.4504 237.282C97.7341 240.382 92.897 238.288 94.1175 234.973C95.2754 231.829 90.8793 229.65 88.9438 232.41C86.9037 235.318 82.3182 232.744 83.8883 229.571C85.3779 226.561 81.2399 223.948 79.0185 226.496C76.6769 229.181 72.3933 226.154 74.2958 223.159C76.1007 220.317 72.2663 217.297 69.7832 219.605C67.1659 222.037 63.231 218.592 65.4451 215.806C67.5455 213.163 64.0568 209.77 61.3392 211.813C58.4747 213.966 54.9318 210.14 57.4331 207.594C59.8061 205.179 56.7011 201.45 53.7789 203.206C50.6987 205.056 47.5864 200.89 50.3476 198.613C52.9672 196.452 50.28 192.428 47.1851 193.877C43.9229 195.404 41.2755 190.944 44.2663 188.96C47.1038 187.078 44.8638 182.803 41.6302 183.929C38.2218 185.116 36.0681 180.412 39.2558 178.742C42.2801 177.159 40.5119 172.679 37.1749 173.47C33.6576 174.304 32.0214 169.407 35.371 168.071C38.5489 166.804 37.2719 162.169 33.8682 162.617C30.2805 163.089 29.1796 158.052 32.6545 157.064C35.9512 156.126 35.1793 151.387 31.7461 151.486C28.1273 151.591 27.5739 146.47 31.1359 145.84C34.5153 145.243 34.2571 140.451 30.832 140.201C27.2219 139.937 27.2219 134.788 30.832 134.524C34.2571 134.273 34.5153 129.482 31.1359 128.885C27.5739 128.255 28.1273 123.134 31.7461 123.238C35.1793 123.338 35.9512 118.598 32.6545 117.661C29.1796 116.673 30.2805 111.636 33.8682 112.108C37.2719 112.556 38.5489 107.921 35.371 106.653C32.0214 105.317 33.6576 100.42 37.1749 101.254C40.5119 102.045 42.2801 97.5657 39.2558 95.9822C36.0681 94.3131 38.2218 89.609 41.6302 90.7959C44.8638 91.922 47.1038 87.6467 44.2663 85.7644C41.2755 83.7804 43.9229 79.3209 47.1851 80.8479C50.28 82.2965 52.9672 78.2723 50.3476 76.1119C47.5864 73.8347 50.6987 69.6688 53.7789 71.519C56.7011 73.2743 59.8061 69.5454 57.4331 67.1305C54.9318 64.5851 58.4747 60.7584 61.3392 62.9116C64.0567 64.9543 67.5455 61.5614 65.4451 58.9185C63.231 56.1328 67.1659 52.6872 69.7832 55.1198C72.2663 57.4276 76.1007 54.408 74.2958 51.566C72.3933 48.5705 76.6769 45.5438 79.0185 48.2291C81.24 50.7767 85.3779 48.1634 83.8883 45.1535C82.3182 41.981 86.9037 39.4064 88.9438 42.315C90.8793 45.0745 95.2754 42.8961 94.1175 39.7513C92.897 36.4366 97.7341 34.3421 99.4504 37.4422C101.079 40.3833 105.685 38.6638 104.871 35.4185C104.014 31.9979 109.049 30.4066 110.423 33.6642C111.726 36.7547 116.492 35.5128 116.032 32.2026C115.547 28.7135 120.726 27.6429 121.742 31.0223C122.706 34.2284 127.579 33.4777 127.477 30.1389C127.37 26.6196 132.635 26.0814 133.283 29.5455C133.897 32.832 138.824 32.5809 139.081 29.25Z"/>
<path d="M138.094 47.5574C139.019 43.4908 144.981 43.4908 145.906 47.5574L149.956 65.3673C150.741 68.8172 155.467 69.5452 157.309 66.4999L166.821 50.779C168.993 47.1895 174.662 48.981 174.25 53.1264L172.443 71.2821C172.093 74.799 176.357 76.9115 179.077 74.569L193.118 62.476C196.324 59.7148 201.147 63.1225 199.438 66.9411L191.95 83.6652C190.5 86.9048 193.883 90.1952 197.215 88.7848L214.411 81.5034C218.338 79.8409 221.842 84.5311 219.003 87.6491L206.568 101.305C204.159 103.95 206.331 108.096 209.948 107.756L228.617 105.999C232.879 105.598 234.721 111.111 231.03 113.223L214.865 122.474C211.734 124.265 212.482 128.861 216.03 129.625L234.343 133.564C238.525 134.464 238.525 140.261 234.343 141.16L216.03 145.1C212.482 145.863 211.734 150.459 214.865 152.251L231.03 161.501C234.721 163.613 232.879 169.127 228.617 168.726L209.948 166.969C206.332 166.629 204.159 170.775 206.568 173.42L219.003 187.075C221.842 190.193 218.338 194.884 214.411 193.221L197.215 185.94C193.883 184.529 190.5 187.82 191.95 191.059L199.438 207.783C201.147 211.602 196.324 215.01 193.118 212.249L179.077 200.156C176.357 197.813 172.093 199.926 172.443 203.442L174.25 221.598C174.662 225.744 168.993 227.535 166.821 223.946L157.309 208.225C155.467 205.179 150.741 205.907 149.956 209.357L145.906 227.167C144.981 231.234 139.019 231.234 138.094 227.167L134.044 209.357C133.259 205.907 128.533 205.179 126.69 208.225L117.179 223.945C115.007 227.535 109.337 225.744 109.75 221.598L111.556 203.442C111.906 199.926 107.643 197.813 104.923 200.156L90.8817 212.248C87.6756 215.01 82.8528 211.602 84.5623 207.783L92.0495 191.059C93.4998 187.82 90.1164 184.529 86.7852 185.94L69.5884 193.221C65.6619 194.884 62.1579 190.193 64.9971 187.075L77.4319 173.42C79.8407 170.775 77.6684 166.629 74.0521 166.969L55.3833 168.726C51.1207 169.127 49.2785 163.613 52.9695 161.501L69.1348 152.251C72.2661 150.459 71.5176 145.863 67.9702 145.1L49.6568 141.161C45.4754 140.261 45.4753 134.464 49.6568 133.564L67.9701 129.625C71.5176 128.861 72.2661 124.265 69.1348 122.474L52.9695 113.223C49.2785 111.111 51.1207 105.598 55.3833 105.999L74.0521 107.756C77.6684 108.096 79.8407 103.95 77.4319 101.305L64.9971 87.6491C62.1579 84.5312 65.6619 79.8409 69.5884 81.5034L86.7852 88.7848C90.1164 90.1952 93.4998 86.9048 92.0495 83.6652L84.5623 66.9411C82.8528 63.1225 87.6756 59.7148 90.8817 62.476L104.923 74.569C107.643 76.9115 111.906 74.799 111.556 71.2821L109.75 53.1265C109.337 48.981 115.007 47.1894 117.179 50.779L126.69 66.4999C128.533 69.5452 133.259 68.8173 134.044 65.3673L138.094 47.5574Z"/>
</mask>
<path d="M131.307 8.3501C133.839 -2.78336 150.161 -2.78337 152.693 8.35009C154.841 17.7954 167.78 19.7884 172.824 11.4509C178.77 1.6234 194.293 6.52829 193.163 17.8778C192.205 27.5065 203.877 33.2903 211.324 26.8769C220.102 19.3173 233.306 28.6469 228.626 39.1016C224.655 47.971 233.918 56.9795 243.038 53.1179C253.788 48.5662 263.382 61.4073 255.608 69.9437C249.014 77.1858 254.961 88.5372 264.862 87.6054C276.532 86.5071 281.575 101.603 271.47 107.385C262.897 112.291 264.946 124.874 274.659 126.963C286.107 129.426 286.107 145.299 274.659 147.761C264.946 149.85 262.897 162.434 271.47 167.339C281.575 173.122 276.532 188.218 264.862 187.119C254.961 186.187 249.014 197.539 255.608 204.781C263.382 213.317 253.788 226.158 243.038 221.607C233.918 217.745 224.655 226.754 228.626 235.623C233.306 246.078 220.102 255.407 211.324 247.848C203.877 241.434 192.205 247.218 193.163 256.847C194.293 268.196 178.77 273.101 172.824 263.274C167.78 254.936 154.841 256.929 152.693 266.375C150.161 277.508 133.839 277.508 131.307 266.375C129.159 256.929 116.22 254.936 111.176 263.274C105.23 273.101 89.7075 268.196 90.8368 256.847C91.7949 247.218 80.1227 241.434 72.676 247.848C63.8983 255.407 50.6942 246.078 55.3746 235.623C59.3453 226.754 50.0822 217.745 40.9621 221.607C30.2119 226.158 20.6186 213.317 28.3919 204.781C34.9866 197.539 29.0393 186.187 19.1385 187.119C7.46817 188.218 2.42465 173.122 12.53 167.339C21.103 162.434 19.0538 149.85 9.34147 147.761C-2.10666 145.299 -2.10666 129.426 9.34147 126.963C19.0538 124.874 21.103 112.291 12.53 107.385C2.42466 101.603 7.46817 86.5071 19.1385 87.6054C29.0393 88.5372 34.9866 77.1858 28.3919 69.9437C20.6186 61.4073 30.2119 48.5662 40.9621 53.1179C50.0822 56.9795 59.3453 47.971 55.3746 39.1016C50.6942 28.6469 63.8983 19.3173 72.676 26.8769C80.1227 33.2903 91.7949 27.5065 90.8368 17.8778C89.7075 6.52829 105.23 1.62341 111.176 11.4509C116.22 19.7884 129.159 17.7954 131.307 8.3501Z" stroke="#E1B168" stroke-width="4" mask="url(#path-1-inside-1_1_2105)"/>
<path d="M139.081 29.25C139.353 25.739 144.647 25.739 144.919 29.25C145.176 32.5809 150.103 32.832 150.717 29.5455C151.365 26.0814 156.631 26.6196 156.523 30.1389C156.421 33.4777 161.294 34.2284 162.258 31.0223C163.274 27.6429 168.453 28.7135 167.968 32.2026C167.508 35.5128 172.274 36.7547 173.577 33.6642C174.951 30.4066 179.986 31.9979 179.129 35.4185C178.315 38.6638 182.921 40.3833 184.55 37.4422C186.266 34.3421 191.103 36.4365 189.883 39.7513C188.725 42.8961 193.121 45.0744 195.056 42.315C197.096 39.4064 201.682 41.981 200.112 45.1535C198.622 48.1634 202.76 50.7767 204.982 48.2291C207.323 45.5438 211.607 48.5705 209.704 51.566C207.899 54.408 211.734 57.4276 214.217 55.1198C216.834 52.6872 220.769 56.1328 218.555 58.9185C216.455 61.5614 219.943 64.9543 222.661 62.9116C225.525 60.7584 229.068 64.5851 226.567 67.1305C224.194 69.5453 227.299 73.2743 230.221 71.519C233.301 69.6688 236.414 73.8347 233.653 76.1119C231.033 78.2723 233.72 82.2965 236.815 80.8479C240.077 79.3209 242.725 83.7804 239.734 85.7644C236.896 87.6467 239.136 91.922 242.37 90.7959C245.778 89.609 247.932 94.3131 244.744 95.9822C241.72 97.5657 243.488 102.045 246.825 101.254C250.343 100.42 251.979 105.317 248.629 106.653C245.451 107.921 246.728 112.556 250.132 112.108C253.72 111.636 254.821 116.673 251.346 117.661C248.049 118.598 248.821 123.338 252.254 123.238C255.873 123.134 256.426 128.255 252.864 128.885C249.485 129.482 249.743 134.273 253.168 134.524C256.778 134.788 256.778 139.937 253.168 140.201C249.743 140.451 249.485 145.243 252.864 145.84C256.426 146.47 255.873 151.591 252.254 151.486C248.821 151.387 248.049 156.126 251.346 157.064C254.821 158.052 253.72 163.089 250.132 162.617C246.728 162.169 245.451 166.804 248.629 168.071C251.979 169.407 250.343 174.304 246.825 173.47C243.488 172.679 241.72 177.159 244.744 178.742C247.932 180.412 245.778 185.116 242.37 183.929C239.136 182.803 236.896 187.078 239.734 188.96C242.725 190.944 240.077 195.404 236.815 193.877C233.72 192.428 231.033 196.452 233.653 198.613C236.414 200.89 233.301 205.056 230.221 203.206C227.299 201.45 224.194 205.179 226.567 207.594C229.068 210.14 225.525 213.966 222.661 211.813C219.943 209.77 216.455 213.163 218.555 215.806C220.769 218.592 216.834 222.037 214.217 219.605C211.734 217.297 207.899 220.317 209.704 223.159C211.607 226.154 207.323 229.181 204.982 226.496C202.76 223.948 198.622 226.561 200.112 229.571C201.682 232.744 197.096 235.318 195.056 232.41C193.121 229.65 188.725 231.829 189.883 234.973C191.103 238.288 186.266 240.382 184.55 237.282C182.921 234.341 178.315 236.061 179.129 239.306C179.986 242.727 174.951 244.318 173.577 241.06C172.274 237.97 167.508 239.212 167.968 242.522C168.453 246.011 163.274 247.082 162.258 243.702C161.294 240.496 156.421 241.247 156.523 244.586C156.631 248.105 151.365 248.643 150.717 245.179C150.103 241.893 145.176 242.144 144.919 245.475C144.647 248.986 139.353 248.986 139.081 245.475C138.824 242.144 133.897 241.893 133.283 245.179C132.635 248.643 127.37 248.105 127.477 244.586C127.579 241.247 122.706 240.496 121.742 243.702C120.726 247.082 115.547 246.011 116.032 242.522C116.492 239.212 111.726 237.97 110.423 241.06C109.049 244.318 104.014 242.727 104.871 239.306C105.685 236.061 101.079 234.341 99.4504 237.282C97.7341 240.382 92.897 238.288 94.1175 234.973C95.2754 231.829 90.8793 229.65 88.9438 232.41C86.9037 235.318 82.3182 232.744 83.8883 229.571C85.3779 226.561 81.2399 223.948 79.0185 226.496C76.6769 229.181 72.3933 226.154 74.2958 223.159C76.1007 220.317 72.2663 217.297 69.7832 219.605C67.1659 222.037 63.231 218.592 65.4451 215.806C67.5455 213.163 64.0568 209.77 61.3392 211.813C58.4747 213.966 54.9318 210.14 57.4331 207.594C59.8061 205.179 56.7011 201.45 53.7789 203.206C50.6987 205.056 47.5864 200.89 50.3476 198.613C52.9672 196.452 50.28 192.428 47.1851 193.877C43.9229 195.404 41.2755 190.944 44.2663 188.96C47.1038 187.078 44.8638 182.803 41.6302 183.929C38.2218 185.116 36.0681 180.412 39.2558 178.742C42.2801 177.159 40.5119 172.679 37.1749 173.47C33.6576 174.304 32.0214 169.407 35.371 168.071C38.5489 166.804 37.2719 162.169 33.8682 162.617C30.2805 163.089 29.1796 158.052 32.6545 157.064C35.9512 156.126 35.1793 151.387 31.7461 151.486C28.1273 151.591 27.5739 146.47 31.1359 145.84C34.5153 145.243 34.2571 140.451 30.832 140.201C27.2219 139.937 27.2219 134.788 30.832 134.524C34.2571 134.273 34.5153 129.482 31.1359 128.885C27.5739 128.255 28.1273 123.134 31.7461 123.238C35.1793 123.338 35.9512 118.598 32.6545 117.661C29.1796 116.673 30.2805 111.636 33.8682 112.108C37.2719 112.556 38.5489 107.921 35.371 106.653C32.0214 105.317 33.6576 100.42 37.1749 101.254C40.5119 102.045 42.2801 97.5657 39.2558 95.9822C36.0681 94.3131 38.2218 89.609 41.6302 90.7959C44.8638 91.922 47.1038 87.6467 44.2663 85.7644C41.2755 83.7804 43.9229 79.3209 47.1851 80.8479C50.28 82.2965 52.9672 78.2723 50.3476 76.1119C47.5864 73.8347 50.6987 69.6688 53.7789 71.519C56.7011 73.2743 59.8061 69.5454 57.4331 67.1305C54.9318 64.5851 58.4747 60.7584 61.3392 62.9116C64.0567 64.9543 67.5455 61.5614 65.4451 58.9185C63.231 56.1328 67.1659 52.6872 69.7832 55.1198C72.2663 57.4276 76.1007 54.408 74.2958 51.566C72.3933 48.5705 76.6769 45.5438 79.0185 48.2291C81.24 50.7767 85.3779 48.1634 83.8883 45.1535C82.3182 41.981 86.9037 39.4064 88.9438 42.315C90.8793 45.0745 95.2754 42.8961 94.1175 39.7513C92.897 36.4366 97.7341 34.3421 99.4504 37.4422C101.079 40.3833 105.685 38.6638 104.871 35.4185C104.014 31.9979 109.049 30.4066 110.423 33.6642C111.726 36.7547 116.492 35.5128 116.032 32.2026C115.547 28.7135 120.726 27.6429 121.742 31.0223C122.706 34.2284 127.579 33.4777 127.477 30.1389C127.37 26.6196 132.635 26.0814 133.283 29.5455C133.897 32.832 138.824 32.5809 139.081 29.25Z" stroke="#E1B168" stroke-width="4" mask="url(#path-1-inside-1_1_2105)"/>
<path d="M138.094 47.5574C139.019 43.4908 144.981 43.4908 145.906 47.5574L149.956 65.3673C150.741 68.8172 155.467 69.5452 157.309 66.4999L166.821 50.779C168.993 47.1895 174.662 48.981 174.25 53.1264L172.443 71.2821C172.093 74.799 176.357 76.9115 179.077 74.569L193.118 62.476C196.324 59.7148 201.147 63.1225 199.438 66.9411L191.95 83.6652C190.5 86.9048 193.883 90.1952 197.215 88.7848L214.411 81.5034C218.338 79.8409 221.842 84.5311 219.003 87.6491L206.568 101.305C204.159 103.95 206.331 108.096 209.948 107.756L228.617 105.999C232.879 105.598 234.721 111.111 231.03 113.223L214.865 122.474C211.734 124.265 212.482 128.861 216.03 129.625L234.343 133.564C238.525 134.464 238.525 140.261 234.343 141.16L216.03 145.1C212.482 145.863 211.734 150.459 214.865 152.251L231.03 161.501C234.721 163.613 232.879 169.127 228.617 168.726L209.948 166.969C206.332 166.629 204.159 170.775 206.568 173.42L219.003 187.075C221.842 190.193 218.338 194.884 214.411 193.221L197.215 185.94C193.883 184.529 190.5 187.82 191.95 191.059L199.438 207.783C201.147 211.602 196.324 215.01 193.118 212.249L179.077 200.156C176.357 197.813 172.093 199.926 172.443 203.442L174.25 221.598C174.662 225.744 168.993 227.535 166.821 223.946L157.309 208.225C155.467 205.179 150.741 205.907 149.956 209.357L145.906 227.167C144.981 231.234 139.019 231.234 138.094 227.167L134.044 209.357C133.259 205.907 128.533 205.179 126.69 208.225L117.179 223.945C115.007 227.535 109.337 225.744 109.75 221.598L111.556 203.442C111.906 199.926 107.643 197.813 104.923 200.156L90.8817 212.248C87.6756 215.01 82.8528 211.602 84.5623 207.783L92.0495 191.059C93.4998 187.82 90.1164 184.529 86.7852 185.94L69.5884 193.221C65.6619 194.884 62.1579 190.193 64.9971 187.075L77.4319 173.42C79.8407 170.775 77.6684 166.629 74.0521 166.969L55.3833 168.726C51.1207 169.127 49.2785 163.613 52.9695 161.501L69.1348 152.251C72.2661 150.459 71.5176 145.863 67.9702 145.1L49.6568 141.161C45.4754 140.261 45.4753 134.464 49.6568 133.564L67.9701 129.625C71.5176 128.861 72.2661 124.265 69.1348 122.474L52.9695 113.223C49.2785 111.111 51.1207 105.598 55.3833 105.999L74.0521 107.756C77.6684 108.096 79.8407 103.95 77.4319 101.305L64.9971 87.6491C62.1579 84.5312 65.6619 79.8409 69.5884 81.5034L86.7852 88.7848C90.1164 90.1952 93.4998 86.9048 92.0495 83.6652L84.5623 66.9411C82.8528 63.1225 87.6756 59.7148 90.8817 62.476L104.923 74.569C107.643 76.9115 111.906 74.799 111.556 71.2821L109.75 53.1265C109.337 48.981 115.007 47.1894 117.179 50.779L126.69 66.4999C128.533 69.5452 133.259 68.8173 134.044 65.3673L138.094 47.5574Z" stroke="#E1B168" stroke-width="4" mask="url(#path-1-inside-1_1_2105)"/>
</svg>
